<svg preserveAspectRatio="none" width="100%" height="100%" overflow="visible" style="display: block;" viewBox="0 0 16.2263 12.165" fill="none" xmlns="http://www.w3.org/2000/svg">
<g id="Group">
<path id="Vector" d="M1.10781 12.1649H3.69271V5.91463L0 3.13672V11.0581C0 11.6658 0.499602 12.1649 1.10781 12.1649Z" fill="var(--fill-0, #4285F4)"/>
<path id="Vector_2" d="M12.5335 12.1649H15.1184C15.7266 12.1649 16.2262 11.6658 16.2262 11.0581V3.13672L12.5335 5.89293" fill="var(--fill-0, #34A853)"/>
<path id="Vector_3" d="M12.5335 1.11871V5.91495L16.2262 3.15874V1.66127C16.2262 0.294018 14.6622 -0.48727 13.5761 0.337423" fill="var(--fill-0, #FBBC04)"/>
<path id="Vector_4" d="M3.6928 5.91454V1.1183L8.12406 4.43878L12.5336 1.1183V5.91454L8.10233 9.21331" fill="var(--fill-0, #EA4335)"/>
<path id="Vector_5" d="M0 1.66097V3.13674L3.69271 5.89295V1.11841L2.65006 0.337126C1.56397 -0.465864 0 0.315424 0 1.66097Z" fill="var(--fill-0, #C5221F)"/>
</g>
</svg>
