<svg preserveAspectRatio="none" width="100%" height="100%" overflow="visible" style="display: block;" viewBox="0 0 11.6667 9.33333" fill="none" xmlns="http://www.w3.org/2000/svg">
<path id="Icon" fill-rule="evenodd" clip-rule="evenodd" d="M1.75 3.47694e-07L9.91667 0C10.8832 -6.95388e-08 11.6667 0.783502 11.6667 1.75V7.58333C11.6667 8.54983 10.8832 9.33333 9.91667 9.33333L1.75 9.33333C0.783502 9.33333 3.12924e-07 8.54983 2.43386e-07 7.58333L0 1.75C-6.95387e-08 0.783502 0.783502 3.82463e-07 1.75 3.47694e-07ZM2.46116 2.55226C2.66242 2.30069 3.0295 2.2599 3.28107 2.46116L5.46893 4.21144C5.68197 4.38188 5.9847 4.38188 6.19774 4.21144L8.38559 2.46116C8.63716 2.2599 9.00425 2.30069 9.20551 2.55226C9.40676 2.80383 9.36598 3.17092 9.11441 3.37217L6.92655 5.12246C6.28742 5.63377 5.37925 5.63376 4.74012 5.12246L2.55226 3.37217C2.30069 3.17092 2.2599 2.80383 2.46116 2.55226Z" fill="var(--fill-0, #D6BAA4)"/>
</svg>
