<svg preserveAspectRatio="none" width="100%" height="100%" overflow="visible" style="display: block;" viewBox="0 0 9.41479 11.6667" fill="none" xmlns="http://www.w3.org/2000/svg">
<path id="Icon" fill-rule="evenodd" clip-rule="evenodd" d="M2.76978 0.512563C3.10083 0.184374 3.54984 0 4.01801 0H7.64952C8.62445 0 9.41479 0.783502 9.41479 1.75V9.91667C9.41479 10.8829 8.62522 11.6667 7.64998 11.6667H1.76364C0.787637 11.6667 0 10.8821 0 9.91667V3.98325C0 3.51912 0.185984 3.074 0.517037 2.74581L2.76978 0.512563ZM5.29582 1.75C5.6208 1.75 5.88425 2.01117 5.88425 2.33333V3.5C5.88425 3.82217 5.6208 4.08333 5.29582 4.08333C4.97084 4.08333 4.7074 3.82217 4.7074 3.5V2.33333C4.7074 2.01117 4.97084 1.75 5.29582 1.75ZM7.0611 1.75C7.38607 1.75 7.64952 2.01117 7.64952 2.33333V3.5C7.64952 3.82217 7.38607 4.08333 7.0611 4.08333C6.73612 4.08333 6.47267 3.82217 6.47267 3.5V2.33333C6.47267 2.01117 6.73612 1.75 7.0611 1.75ZM3.53643 4.08333H3.53055C3.20557 4.08333 2.94212 3.82217 2.94212 3.5C2.94212 3.17783 3.20557 2.91667 3.53055 2.91667H3.53643C3.86141 2.91667 4.12486 3.17783 4.12486 3.5C4.12486 3.82217 3.86141 4.08333 3.53643 4.08333Z" fill="var(--fill-0, #B3A4D6)"/>
</svg>
