<svg preserveAspectRatio="none" width="100%" height="100%" overflow="visible" style="display: block;" viewBox="0 0 53.9368 40.707" fill="none" xmlns="http://www.w3.org/2000/svg">
<g id="Content">
<g id="jace_logo_black">
<path d="M0 29.312H1.47667C1.7924 29.312 2.01537 29.2551 2.145 29.1417C2.27464 29.0278 2.33974 28.8221 2.33974 28.5254V13.9915H6.46324V27.5022C6.46324 29.1113 5.97582 30.357 5.0004 31.2407C4.02555 32.1234 2.63646 32.5656 0.835416 32.5656H0V29.312ZM2.66066 11.906C2.18706 11.4953 1.95026 10.9745 1.95026 10.3452C1.95026 9.71582 2.18706 9.2129 2.66066 8.7843C3.13425 8.3557 3.72365 8.1414 4.42943 8.1414C5.13522 8.1414 5.72519 8.3557 6.19879 8.7843C6.67238 9.2129 6.90918 9.73319 6.90918 10.3452C6.90918 10.9571 6.67238 11.4953 6.19879 11.906C5.72519 12.3173 5.13522 12.5223 4.42943 12.5223C3.72365 12.5223 3.13425 12.3167 2.66008 11.906H2.66066Z" fill="var(--fill-0, #1B1B1B)"/>
<path d="M9.63955 26.5837C8.72923 25.8143 8.27465 24.809 8.27465 23.5666C8.27465 22.3242 8.69697 21.4247 9.54218 20.707C10.3874 19.9903 11.599 19.5704 13.1777 19.4477L16.3258 19.2378C17.05 19.1852 17.4124 18.8444 17.4124 18.2146C17.4124 17.6899 17.2078 17.2923 16.7994 17.021C16.3909 16.7503 15.8245 16.6141 15.0997 16.6141C13.5579 16.6141 12.6943 17.1914 12.5088 18.3453H8.55293C8.70158 16.8235 9.32324 15.6479 10.4197 14.8167C11.5155 13.9861 13.0757 13.5705 15.1003 13.5705C17.1249 13.5705 18.7174 14.0165 19.8224 14.9084C20.9275 15.8003 21.48 17.1295 21.48 18.896V24.0641H22.6225V27.3172H21.0064C19.2791 27.3172 18.3129 26.5652 18.1089 25.0613C17.663 25.9711 17.0223 26.6444 16.1869 27.0812C15.3509 27.5179 14.3853 27.7371 13.2895 27.7371C11.7661 27.7371 10.5499 27.3524 9.64013 26.5826L9.63955 26.5837ZM16.5211 23.9475C17.1341 23.4321 17.4406 22.8152 17.4406 22.098V21.5468L14.1808 21.8094C13.5677 21.862 13.1126 22.0237 12.8159 22.2949C12.5186 22.5662 12.3699 22.9113 12.3699 23.3312C12.3699 23.7511 12.5272 24.088 12.8435 24.3414C13.1592 24.5953 13.6138 24.7217 14.2084 24.7217C15.1372 24.7217 15.9081 24.464 16.5205 23.948L16.5211 23.9475Z" fill="var(--fill-0, #1B1B1B)"/>
<path d="M27.1493 26.8593C26.0068 26.2733 25.1247 25.447 24.5025 24.3799C23.8802 23.3133 23.5691 22.0714 23.5691 20.6549C23.5691 19.2383 23.8796 18.0182 24.5025 16.9429C25.1247 15.867 26.0022 15.037 27.1355 14.4505C28.2682 13.8646 29.5778 13.5716 31.0637 13.5716C33.0318 13.5716 34.6525 14.0832 35.9252 15.1064C37.1973 16.1296 37.9452 17.5418 38.1681 19.343H34.0446C33.9335 18.5911 33.6079 17.9835 33.0698 17.5196C32.5311 17.0563 31.853 16.8246 31.036 16.8246C30.0329 16.8246 29.239 17.1745 28.6542 17.8739C28.0688 18.5737 27.7767 19.5004 27.7767 20.6549C27.7767 21.8094 28.0786 22.7317 28.6824 23.4223C29.2857 24.1135 30.0796 24.4586 31.0642 24.4586C31.8812 24.4586 32.5732 24.2312 33.1395 23.7766C33.7059 23.322 34.0539 22.71 34.1841 21.9401H38.307C38.1025 23.7066 37.35 25.1145 36.0502 26.1637C34.7499 27.213 33.0969 27.7376 31.0913 27.7376C29.6054 27.7376 28.2912 27.4446 27.1493 26.8587V26.8593Z" fill="var(--fill-0, #1B1B1B)"/>
<path d="M42.9035 26.8593C41.7702 26.2733 40.8974 25.4427 40.2849 24.3669C39.6719 23.291 39.3654 22.0454 39.3654 20.6283C39.3654 19.2112 39.6673 17.9965 40.2711 16.9293C40.8743 15.8627 41.7426 15.0364 42.8759 14.4499C44.0086 13.864 45.3366 13.571 46.8599 13.571C48.3833 13.571 49.618 13.8423 50.6769 14.3843C51.7353 14.9268 52.5436 15.6918 53.1008 16.6798C53.6579 17.6682 53.9368 18.8092 53.9368 20.1031C53.9368 20.5404 53.8901 21.065 53.7973 21.677H43.4895C43.6007 22.6389 43.9492 23.3784 44.534 23.8938C45.1188 24.4097 45.8943 24.6674 46.8605 24.6674C47.6032 24.6674 48.2254 24.5231 48.7272 24.2345C49.2285 23.9459 49.5442 23.5916 49.6744 23.1722H53.742C53.4816 24.5361 52.7297 25.638 51.4853 26.4779C50.2408 27.3172 48.6996 27.7371 46.8605 27.7371C45.3562 27.7371 44.0374 27.4441 42.9047 26.8582L42.9035 26.8593ZM49.8127 19.1597C49.7937 18.3377 49.5154 17.6948 48.9767 17.2315C48.438 16.7682 47.7046 16.5365 46.7758 16.5365C45.9214 16.5365 45.2156 16.7552 44.6585 17.1924C44.1013 17.6297 43.7389 18.2856 43.5719 19.1602H49.8127V19.1597Z" fill="var(--fill-0, #1B1B1B)"/>
</g>
</g>
</svg>
