<svg preserveAspectRatio="none" width="100%" height="100%" overflow="visible" style="display: block;" viewBox="0 0 8.16667 11.3147" fill="none" xmlns="http://www.w3.org/2000/svg">
<path id="Icon" fill-rule="evenodd" clip-rule="evenodd" d="M5.20366 0.405613C4.55468 -0.135205 3.61199 -0.135203 2.96301 0.405613L0.629677 2.35006C0.23069 2.68255 0 3.17508 0 3.69444V9.56467C0 10.5312 0.783502 11.3147 1.75 11.3147H6.41667C7.38317 11.3147 8.16667 10.5312 8.16667 9.56467V3.69444C8.16667 3.17508 7.93598 2.68255 7.53699 2.35006L5.20366 0.405613ZM4.08333 2.56467C3.76117 2.56467 3.5 2.82584 3.5 3.14801C3.5 3.47017 3.76117 3.73134 4.08333 3.73134H4.08917C4.41133 3.73134 4.6725 3.47017 4.6725 3.14801C4.6725 2.82584 4.41133 2.56467 4.08917 2.56467C4.08917 2.56467 4.4055 2.56467 4.08333 2.56467Z" fill="var(--fill-0, #B3A4D6)"/>
</svg>
